<svg xmlns="http://www.w3.org/2000/svg" width="160" height="71" viewBox="0 0 160 71">
    <g fill="none" fill-rule="evenodd">
        <path fill="#F3F7FF" d="M153.293 1C156.997 1 160 4.018 160 7.74c0 3.723-3.003 6.74-6.707 6.74H114.97c3.704 0 6.707 3.018 6.707 6.74 0 3.723-3.003 6.74-6.707 6.74h21.078c3.704 0 6.706 3.018 6.706 6.74 0 3.723-3.002 6.741-6.706 6.741H126.3c-4.67 0-8.456 3.018-8.456 6.74 0 2.482 1.916 4.729 5.749 6.74 3.704 0 6.706 3.018 6.706 6.74 0 3.723-3.002 6.74-6.706 6.74H44.072c-3.704 0-6.707-3.017-6.707-6.74 0-3.722 3.003-6.74 6.707-6.74H6.707C3.003 54.921 0 51.904 0 48.181c0-3.722 3.003-6.74 6.707-6.74H45.03c3.704 0 6.707-3.018 6.707-6.74 0-3.723-3.003-6.74-6.707-6.74H21.078c-3.704 0-6.707-3.018-6.707-6.74 0-3.723 3.003-6.74 6.707-6.74H59.4c-3.704 0-6.706-3.018-6.706-6.74C52.695 4.017 55.697 1 59.4 1h93.892zm0 26.96c3.704 0 6.707 3.018 6.707 6.74 0 3.723-3.003 6.741-6.707 6.741-3.704 0-6.706-3.018-6.706-6.74 0-3.723 3.002-6.74 6.706-6.74z"/>
        <path fill="#FFF" d="M53.896.931h40.881l5.192 5.431 6.458 6.053.146 56.163H54.04z"/>
        <path fill="#00A651" d="M88.788 43.846a10.109 10.109 0 0 1-1.987 1.688.769.769 0 0 1-.576.106.762.762 0 0 1-.352.416c-1.5.83-3.156 1.339-4.867 1.498a12.53 12.53 0 0 1-10.194-3.782 12.508 12.508 0 0 1-3.45-7.335 12.571 12.571 0 0 1 .15-3.76 12.423 12.423 0 0 1 6.074-8.463c.999-.568 2.072-.993 3.19-1.266a12.569 12.569 0 0 1 6.802.242 12.48 12.48 0 0 1 5.194 3.238 12.479 12.479 0 0 1 3.497 7.865 12.56 12.56 0 0 1-.314 3.77 12.398 12.398 0 0 1-2.453 4.959.769.769 0 0 1-.52.28v.085a.768.768 0 0 1-.194.459z"/>
        <path fill="#07F" fill-rule="nonzero" d="M93.528.09c.886 0 1.737.355 2.364.985l11.24 11.29c.628.63.98 1.485.98 2.377v52.575a3.353 3.353 0 0 1-3.344 3.362H55.435a3.353 3.353 0 0 1-3.344-3.362V3.452A3.353 3.353 0 0 1 55.435.091h38.093zm-.817 2.1l-37.276.002c-.692 0-1.254.564-1.254 1.26v63.865c0 .697.562 1.261 1.254 1.261h49.333c.693 0 1.254-.564 1.254-1.26V14.741c0-.334-.132-.655-.367-.892L94.8 2.95v8.907c0 .764.58 1.392 1.323 1.463l.14.007h6.634c.578 0 1.045.47 1.045 1.05 0 .58-.467 1.051-1.045 1.051h-6.633a3.563 3.563 0 0 1-3.554-3.571V2.19z"/>
        <path fill="#FFF" fill-rule="nonzero" d="M75.242 35.073a.903.903 0 0 0-1.242.054.824.824 0 0 0 .057 1.195l4.135 3.635c.501.441 1.28.407 1.738-.075.019-.02.019-.02.037-.042l5.902-6.83a.824.824 0 0 0-.114-1.192.902.902 0 0 0-1.238.11L78.97 38.35l-3.727-3.277z"/>
    </g>
</svg>
